<svg xmlns="http://www.w3.org/2000/svg" viewBox="0 0 48 48" fill="none" aria-hidden="true">
  <rect x="7" y="9" width="30" height="32" rx="7" fill="#ecfdf5" stroke="#16a34a" stroke-width="2"/>
  <path d="M14 18h20M14 24h14M14 30h17" stroke="#16a34a" stroke-width="2.2" stroke-linecap="round" opacity="0.45"/>
  <circle cx="17" cy="18" r="2" fill="#16a34a"/>
  <circle cx="17" cy="24" r="2" fill="#16a34a" opacity="0.7"/>
  <circle cx="17" cy="30" r="2" fill="#16a34a" opacity="0.5"/>
  <path d="M35 5l1.2 2.4 2.6.4-1.9 1.9.4 2.6-2.3-1.2-2.3 1.2.4-2.6-1.9-1.9 2.6-.4z" fill="#16a34a"/>
  <path d="M41 14l.8 1.6 1.8.2-1.3 1.3.3 1.8-1.6-.8-1.6.8.3-1.8-1.3-1.3 1.8-.2z" fill="#15803d" opacity="0.85"/>
</svg>
